<svg width="34" height="35" viewBox="0 0 34 35" fill="none" xmlns="http://www.w3.org/2000/svg">
<rect x="0.14209" y="0.919373" width="33.4113" height="33.4113" rx="5.56856" fill="#E8F5E9"/>
<g clip-path="url(#clip0_211_2511)">
<path fill-rule="evenodd" clip-rule="evenodd" d="M7.34876 1.05472C11.193 1.05472 14.3095 4.17113 14.3095 8.01541V1.05472H21.2701C25.1144 1.05472 28.2308 4.17113 28.2308 8.01541C28.2308 11.8597 25.1144 14.9761 21.2701 14.9761C25.1144 14.9761 28.2308 18.0926 28.2308 21.9368C28.2308 23.8456 27.4625 25.575 26.2182 26.8325L26.1921 26.8588L26.169 26.8817C24.9112 28.1279 23.1806 28.8975 21.2701 28.8975C19.3727 28.8975 17.6526 28.1383 16.397 26.9071C16.3807 26.8911 16.3644 26.8749 16.3482 26.8588C16.3329 26.8435 16.3178 26.8282 16.3026 26.8128C15.0698 25.557 14.3095 23.8357 14.3095 21.9368C14.3095 25.7811 11.193 28.8975 7.34876 28.8975C3.50447 28.8975 0.388062 25.7811 0.388062 21.9368V14.9761H7.34876C3.50447 14.9761 0.388062 11.8597 0.388062 8.01541C0.388062 4.17113 3.50447 1.05472 7.34876 1.05472ZM12.9173 8.01541C12.9173 11.0909 10.4242 13.584 7.34876 13.584V2.44686C10.4242 2.44686 12.9173 4.93998 12.9173 8.01541ZM26.8387 21.9368C26.8387 18.8614 24.3456 16.3682 21.2701 16.3682C18.1947 16.3682 15.7016 18.8614 15.7016 21.9368H26.8387ZM1.7802 16.3682V21.9368C1.7802 25.0122 4.27333 27.5054 7.34876 27.5054C10.4242 27.5054 12.9173 25.0122 12.9173 21.9368V16.3682H1.7802ZM15.7016 13.584V2.44686H21.2701C24.3456 2.44686 26.8387 4.93998 26.8387 8.01541C26.8387 11.0909 24.3456 13.584 21.2701 13.584H15.7016Z" fill="#5417D7"/>
</g>
<defs>
<clipPath id="clip0_211_2511">
<rect width="27.8428" height="27.8428" fill="white" transform="translate(0.388062 1.05472)"/>
</clipPath>
</defs>
</svg>
