<svg width="37" height="34" viewBox="0 0 37 34" fill="none" xmlns="http://www.w3.org/2000/svg">
<g clip-path="url(#clip0_211_2076)">
<path d="M8.81748 10.004C7.40395 10.004 6.04833 10.5655 5.04882 11.5651L1.78683 14.827C0.787319 15.8266 0.2258 17.1822 0.2258 18.5957C0.2258 21.5392 2.61199 23.9254 5.55551 23.9254C6.96904 23.9254 8.32466 23.3639 9.32417 22.3644L11.5805 20.108C11.5805 20.108 11.5805 20.1081 11.5805 20.108L18.1547 13.5338C18.6321 13.0565 19.2795 12.7883 19.9546 12.7883C21.0848 12.7883 22.043 13.5249 22.3752 14.5443L24.45 12.4695C23.5035 10.987 21.8439 10.004 19.9546 10.004C18.5411 10.004 17.1854 10.5655 16.1859 11.5651L7.35541 20.3956C6.87804 20.873 6.23061 21.1411 5.55551 21.1411C4.1497 21.1411 3.01008 20.0015 3.01008 18.5957C3.01008 17.9206 3.27825 17.2732 3.75561 16.7958L7.01758 13.5338C7.49495 13.0565 8.14238 12.7883 8.81748 12.7883C9.94775 12.7883 10.9059 13.525 11.2381 14.5444L13.313 12.4695C12.3665 10.9871 10.7068 10.004 8.81748 10.004Z" fill="#394149"/>
<path d="M18.4925 20.3956C18.0152 20.873 17.3677 21.1411 16.6926 21.1411C15.5625 21.1411 14.6044 20.4047 14.2721 19.3855L12.1974 21.4603C13.1439 22.9425 14.8035 23.9254 16.6926 23.9254C18.1062 23.9254 19.4618 23.3639 20.4613 22.3644L29.2918 13.5338C29.7692 13.0565 30.4166 12.7883 31.0917 12.7883C32.4975 12.7883 33.6371 13.9279 33.6371 15.3337C33.6371 16.0088 33.369 16.6563 32.8916 17.1336L29.6296 20.3956C29.1523 20.873 28.5048 21.1411 27.8297 21.1411C26.6995 21.1411 25.7414 20.4046 25.4091 19.3853L23.3344 21.4601C24.2809 22.9425 25.9405 23.9254 27.8297 23.9254C29.2433 23.9254 30.5989 23.3639 31.5984 22.3644L34.8604 19.1024C35.8599 18.1029 36.4214 16.7473 36.4214 15.3337C36.4214 12.3902 34.0352 10.004 31.0917 10.004C29.6782 10.004 28.3225 10.5655 27.323 11.5651L18.4925 20.3956Z" fill="#394149"/>
</g>
<defs>
<clipPath id="clip0_211_2076">
<rect width="36.1956" height="13.9214" fill="white" transform="translate(0.2258 10.004)"/>
</clipPath>
</defs>
</svg>
