<svg width="23" height="23" viewBox="0 0 23 23" fill="none" xmlns="http://www.w3.org/2000/svg">
<path opacity="0.1" fill-rule="evenodd" clip-rule="evenodd" d="M0.262817 11.7743C0.262817 5.62346 5.24907 0.637207 11.3999 0.637207C17.5508 0.637207 22.537 5.62346 22.537 11.7743C22.537 17.9252 17.5508 22.9114 11.3999 22.9114C5.24907 22.9114 0.262817 17.9252 0.262817 11.7743Z" fill="white"/>
<path fill-rule="evenodd" clip-rule="evenodd" d="M17.3397 11.766C17.3397 12.1677 17.2988 12.5689 17.2185 12.9599C17.1402 13.3416 17.0242 13.7164 16.8722 14.0746C16.7237 14.4266 16.5395 14.7657 16.3243 15.082C16.1123 15.3962 15.8681 15.6911 15.5998 15.9598C15.3309 16.2274 15.0351 16.471 14.7209 16.6839C14.4036 16.8976 14.064 17.0815 13.7119 17.2307C13.3531 17.3819 12.9775 17.4977 12.5961 17.5759C12.2045 17.6565 11.8019 17.6976 11.3997 17.6976C10.9971 17.6976 10.5945 17.6565 10.2035 17.5759C9.82155 17.4977 9.44594 17.3819 9.08745 17.2307C8.73534 17.0815 8.39539 16.8976 8.07809 16.6839C7.76398 16.471 7.46813 16.2274 7.19984 15.9598C6.93127 15.6911 6.68704 15.3962 6.47473 15.082C6.26068 14.7657 6.07619 14.4265 5.92712 14.0746C5.77512 13.7164 5.65883 13.3416 5.58022 12.9599C5.50076 12.5689 5.46014 12.1677 5.46014 11.766C5.46014 11.364 5.50074 10.962 5.58025 10.5719C5.65885 10.1901 5.77514 9.8148 5.92715 9.45712C6.07622 9.10494 6.2607 8.76551 6.47475 8.44922C6.68706 8.1347 6.93129 7.84042 7.19986 7.57136C7.46816 7.30373 7.764 7.06076 8.07812 6.84817C8.39542 6.63355 8.73536 6.44966 9.08747 6.3002C9.44597 6.14869 9.82155 6.03257 10.2036 5.95496C10.5945 5.87503 10.9971 5.83447 11.3997 5.83447C11.802 5.83447 12.2045 5.87503 12.5961 5.95496C12.9775 6.03259 13.3531 6.14872 13.7119 6.3002C14.064 6.44963 14.4037 6.63355 14.721 6.84817C15.0351 7.06076 15.331 7.30373 15.5998 7.57136C15.8681 7.84042 16.1123 8.1347 16.3243 8.44922C16.5395 8.76551 16.7237 9.10497 16.8722 9.45712C17.0242 9.8148 17.1402 10.1901 17.2185 10.5719C17.2988 10.962 17.3397 11.364 17.3397 11.766ZM9.23534 7.18442C7.82078 7.85144 6.76502 9.15301 6.43581 10.7216C6.56954 10.7228 8.68338 10.7494 11.1189 10.1033C10.2409 8.54565 9.30292 7.27451 9.23534 7.18442ZM11.5391 10.8833C8.92731 11.6641 6.42103 11.6079 6.33112 11.6044C6.32966 11.6589 6.32705 11.7116 6.32705 11.766C6.32705 13.0673 6.81868 14.2536 7.62674 15.1506C7.625 15.148 9.01317 12.6888 11.7506 11.8048C11.8167 11.7828 11.884 11.7631 11.9507 11.744C11.8234 11.4561 11.6844 11.1677 11.5391 10.8833ZM14.7497 7.96439C13.8566 7.17804 12.684 6.70105 11.3997 6.70105C10.9875 6.70105 10.5875 6.75087 10.2044 6.84297C10.2804 6.94493 11.2332 8.20711 12.1007 9.79771C14.0147 9.08119 14.7372 7.98291 14.7497 7.96439ZM12.2965 12.5833C12.2852 12.5871 12.2739 12.5903 12.2629 12.5944C9.26994 13.6362 8.29256 15.7359 8.28198 15.7588C9.14314 16.4275 10.2233 16.831 11.3997 16.831C12.1022 16.831 12.7713 16.6882 13.3801 16.4296C13.305 15.987 13.0103 14.4358 12.2965 12.5833ZM14.2343 15.9668C15.3732 15.1993 16.1822 13.9805 16.4078 12.5688C16.3034 12.5352 14.8842 12.0866 13.2469 12.3487C13.9123 14.1746 14.1826 15.6615 14.2343 15.9668ZM12.4911 10.5525C12.6089 10.794 12.7229 11.0399 12.8281 11.287C12.8656 11.3756 12.9021 11.4625 12.9378 11.5494C14.6804 11.3304 16.3971 11.6988 16.4705 11.7139C16.4589 10.5131 16.0288 9.41105 15.317 8.54828C15.3075 8.56186 14.4939 9.73572 12.4911 10.5525Z" fill="white"/>
</svg>
