<svg width="12" height="13" viewBox="0 0 12 13" fill="none" xmlns="http://www.w3.org/2000/svg">
<path fill-rule="evenodd" clip-rule="evenodd" d="M11.4608 0.766934C11.6026 0.908743 11.6506 1.11925 11.5844 1.30854L7.93003 11.7496C7.85932 11.9516 7.67244 12.09 7.45857 12.0987C7.24469 12.1075 7.04716 11.9848 6.96023 11.7891L4.95357 7.27416L0.438585 5.2675C0.242982 5.18057 0.120266 4.98304 0.128992 4.76916C0.137717 4.55529 0.276116 4.36841 0.47815 4.2977L10.9192 0.643337C11.1085 0.577086 11.319 0.625125 11.4608 0.766934ZM5.97176 6.99427L7.37955 10.1618L9.84318 3.12285L5.97176 6.99427ZM9.10489 2.38455L2.06593 4.84819L5.23346 6.25598L9.10489 2.38455Z" fill="white"/>
</svg>
